<svg width="24" height="24" viewBox="0 0 24 24" fill="none" xmlns="http://www.w3.org/2000/svg">
<path fill-rule="evenodd" clip-rule="evenodd" d="M17 3.12906C17.0001 2.97856 16.9662 2.82998 16.9009 2.69439C16.8356 2.55881 16.7405 2.43972 16.6227 2.34599C16.505 2.25227 16.3676 2.18634 16.2208 2.1531C16.074 2.11987 15.9216 2.1202 15.775 2.15406L3.775 4.92406C3.55492 4.97488 3.35852 5.09871 3.2178 5.27539C3.07707 5.45207 3.00031 5.67119 3 5.89706V21.0001H2.5C2.36739 21.0001 2.24021 21.0527 2.14645 21.1465C2.05268 21.2403 2 21.3675 2 21.5001C2 21.6327 2.05268 21.7598 2.14645 21.8536C2.24021 21.9474 2.36739 22.0001 2.5 22.0001H8V19.0001C8 18.7348 8.10536 18.4805 8.29289 18.293C8.48043 18.1054 8.73478 18.0001 9 18.0001H11C11.2652 18.0001 11.5196 18.1054 11.7071 18.293C11.8946 18.4805 12 18.7348 12 19.0001V22.0001H17V3.12906ZM6.5 8.00006C6.36739 8.00006 6.24021 8.05274 6.14645 8.14651C6.05268 8.24027 6 8.36745 6 8.50006V9.50006C6 9.63267 6.05268 9.75984 6.14645 9.85361C6.24021 9.94738 6.36739 10.0001 6.5 10.0001H7.5C7.63261 10.0001 7.75979 9.94738 7.85355 9.85361C7.94732 9.75984 8 9.63267 8 9.50006V8.50006C8 8.36745 7.94732 8.24027 7.85355 8.14651C7.75979 8.05274 7.63261 8.00006 7.5 8.00006H6.5ZM6 11.5001C6 11.3675 6.05268 11.2403 6.14645 11.1465C6.24021 11.0527 6.36739 11.0001 6.5 11.0001H7.5C7.63261 11.0001 7.75979 11.0527 7.85355 11.1465C7.94732 11.2403 8 11.3675 8 11.5001V12.5001C8 12.6327 7.94732 12.7598 7.85355 12.8536C7.75979 12.9474 7.63261 13.0001 7.5 13.0001H6.5C6.36739 13.0001 6.24021 12.9474 6.14645 12.8536C6.05268 12.7598 6 12.6327 6 12.5001V11.5001ZM6.5 14.0001C6.36739 14.0001 6.24021 14.0527 6.14645 14.1465C6.05268 14.2403 6 14.3675 6 14.5001V15.5001C6 15.6327 6.05268 15.7598 6.14645 15.8536C6.24021 15.9474 6.36739 16.0001 6.5 16.0001H7.5C7.63261 16.0001 7.75979 15.9474 7.85355 15.8536C7.94732 15.7598 8 15.6327 8 15.5001V14.5001C8 14.3675 7.94732 14.2403 7.85355 14.1465C7.75979 14.0527 7.63261 14.0001 7.5 14.0001H6.5ZM9 8.50006C9 8.36745 9.05268 8.24027 9.14645 8.14651C9.24021 8.05274 9.36739 8.00006 9.5 8.00006H10.5C10.6326 8.00006 10.7598 8.05274 10.8536 8.14651C10.9473 8.24027 11 8.36745 11 8.50006V9.50006C11 9.63267 10.9473 9.75984 10.8536 9.85361C10.7598 9.94738 10.6326 10.0001 10.5 10.0001H9.5C9.36739 10.0001 9.24021 9.94738 9.14645 9.85361C9.05268 9.75984 9 9.63267 9 9.50006V8.50006ZM9.5 11.0001C9.36739 11.0001 9.24021 11.0527 9.14645 11.1465C9.05268 11.2403 9 11.3675 9 11.5001V12.5001C9 12.6327 9.05268 12.7598 9.14645 12.8536C9.24021 12.9474 9.36739 13.0001 9.5 13.0001H10.5C10.6326 13.0001 10.7598 12.9474 10.8536 12.8536C10.9473 12.7598 11 12.6327 11 12.5001V11.5001C11 11.3675 10.9473 11.2403 10.8536 11.1465C10.7598 11.0527 10.6326 11.0001 10.5 11.0001H9.5ZM9 14.5001C9 14.3675 9.05268 14.2403 9.14645 14.1465C9.24021 14.0527 9.36739 14.0001 9.5 14.0001H10.5C10.6326 14.0001 10.7598 14.0527 10.8536 14.1465C10.9473 14.2403 11 14.3675 11 14.5001V15.5001C11 15.6327 10.9473 15.7598 10.8536 15.8536C10.7598 15.9474 10.6326 16.0001 10.5 16.0001H9.5C9.36739 16.0001 9.24021 15.9474 9.14645 15.8536C9.05268 15.7598 9 15.6327 9 15.5001V14.5001ZM12.5 8.00006C12.3674 8.00006 12.2402 8.05274 12.1464 8.14651C12.0527 8.24027 12 8.36745 12 8.50006V9.50006C12 9.63267 12.0527 9.75984 12.1464 9.85361C12.2402 9.94738 12.3674 10.0001 12.5 10.0001H13.5C13.6326 10.0001 13.7598 9.94738 13.8536 9.85361C13.9473 9.75984 14 9.63267 14 9.50006V8.50006C14 8.36745 13.9473 8.24027 13.8536 8.14651C13.7598 8.05274 13.6326 8.00006 13.5 8.00006H12.5ZM12 11.5001C12 11.3675 12.0527 11.2403 12.1464 11.1465C12.2402 11.0527 12.3674 11.0001 12.5 11.0001H13.5C13.6326 11.0001 13.7598 11.0527 13.8536 11.1465C13.9473 11.2403 14 11.3675 14 11.5001V12.5001C14 12.6327 13.9473 12.7598 13.8536 12.8536C13.7598 12.9474 13.6326 13.0001 13.5 13.0001H12.5C12.3674 13.0001 12.2402 12.9474 12.1464 12.8536C12.0527 12.7598 12 12.6327 12 12.5001V11.5001ZM12.5 14.0001C12.3674 14.0001 12.2402 14.0527 12.1464 14.1465C12.0527 14.2403 12 14.3675 12 14.5001V15.5001C12 15.6327 12.0527 15.7598 12.1464 15.8536C12.2402 15.9474 12.3674 16.0001 12.5 16.0001H13.5C13.6326 16.0001 13.7598 15.9474 13.8536 15.8536C13.9473 15.7598 14 15.6327 14 15.5001V14.5001C14 14.3675 13.9473 14.2403 13.8536 14.1465C13.7598 14.0527 13.6326 14.0001 13.5 14.0001H12.5Z" fill="#3B3C40"/>
<path d="M18 5.69116V22.0002H21.5C21.6326 22.0002 21.7598 21.9475 21.8536 21.8537C21.9473 21.7599 22 21.6328 22 21.5002C22 21.3676 21.9473 21.2404 21.8536 21.1466C21.7598 21.0528 21.6326 21.0002 21.5 21.0002H21V7.80916C20.9999 7.6235 20.9481 7.44153 20.8504 7.28364C20.7528 7.12574 20.6131 6.99815 20.447 6.91516L18 5.69116ZM11 22.0002H9V19.0002H11V22.0002Z" fill="#3B3C40"/>
</svg>
